<?xml version="1.0" encoding="utf-8"?>
<svg viewBox="0 3.27 215.459 401.73" xmlns="http://www.w3.org/2000/svg" xmlns:bx="https://boxy-svg.com">
  <g transform="matrix(0.1, 0, 0, -0.1, 0, 405)" fill="#000000" stroke="none"/>
  <g transform="matrix(0, -1, 1, 0, -117.129282, 693.220103)">
    <title>Layer 1</title>
    <g id="layer1">
      <path d="M 562.779 354.014 C 557.761 379.745 477.617 378.555 476.442 354.395 C 475.268 330.234 474.088 302.518 470.716 277.894 C 469.63 254.263 465.922 256.851 464.397 236.905 C 460.818 221.388 466.081 201.232 455.295 188.233 C 445.834 172.231 442.125 150.492 435.705 133.002 C 435.92 114.281 460.188 117.593 462.387 131.889 C 464.586 146.185 471.737 171.399 481.621 180.469 C 492.176 190.155 483.889 169.054 481.46 161.171 C 475.837 142.92 473.961 123.036 467.007 105.127 C 460.459 88.262 483.684 79.534 488.149 97.431 C 492.743 115.844 501.245 134.133 505.591 151.769 C 506.761 156.518 511.472 174.45 510.49 165.309 C 507.597 138.403 497.464 110.549 492.124 83.375 C 488.827 66.598 515.23 68.778 517.304 85.313 C 519.397 102.005 526.544 118.243 531.695 134.518 C 534.286 142.704 529.982 159.442 536.473 162.327 C 544.51 149.147 538.56 131.994 536.511 117.689 C 536.853 104.319 523.169 82.761 540.094 75.667 C 560.127 73.559 558.154 100.317 563.032 113.37 C 568.763 130.601 567.202 148.671 567.154 166.495 C 568.51 182.077 569.431 197.867 573.528 213.034 C 590.027 219.508 588.253 191.319 600.49 185.486 C 610.124 176.028 624.094 168.644 637.872 172.288 C 653.943 181.59 635.751 197.041 626.554 203.408 C 614.297 215.674 606.742 232.031 604.436 249.106 C 596.956 263.649 584.842 267.584 576.028 281.358 C 560.799 302.932 567.796 328.282 562.779 354.014 Z" transform="rotate(87.6963 536.56 225.53)" id="path2170" style="fill: rgb(217, 165, 114);"/>
    </g>
    <path d="M 492.793 163.128 C 492.793 163.128 287.494 165.645 287.589 165.054 C 287.683 164.463 288.499 266.706 288.594 266.115 C 288.688 265.524 497.296 266.222 496.39 265.631" stroke-width="null" stroke-linejoin="null" stroke-linecap="null" stroke-dasharray="null" id="svg_3" style="fill: rgb(217, 165, 114);"/>
  </g>
  <path d="M 56.389 215.48 H 140.811 A 14.572 14.572 0 0 1 155.383 230.052 V 310.784 A 14.572 14.572 0 0 1 140.811 325.356 H 56.389 A 14.572 14.572 0 0 1 41.817 310.784 V 230.052 A 14.572 14.572 0 0 1 56.389 215.48 Z M 96.755 270.418 V 270.418 H 100.445 V 270.418 H 96.755 Z" style="stroke: rgba(163, 5, 110, 0.41); paint-order: fill markers; fill-rule: nonzero; fill: rgb(187, 34, 123);" bx:shape="frame 41.817 215.48 113.566 109.876 54.938 54.938 14.572 14.572 14.572 14.572 1@8b29d0fd"/>
  <path d="M 56.896 204.568 H 141.313 V 335.213 H 56.896 V 204.568 Z M 64.384 211.87 V 327.911 H 133.825 V 211.87 H 64.384 Z" style="stroke: rgba(92, 57, 57, 0); fill: rgb(79, 69, 69);" bx:shape="frame 56.896 204.568 84.417 130.645 7.488 7.302 0 0 0 0 1@95c65f30"/>
  <path d="M 64.761 211.776 H 133.499 V 327.961 H 64.761 V 211.776 Z M 99.13 269.869 V 269.869 H 99.13 V 269.869 H 99.13 Z" style="fill: rgb(79, 69, 69); stroke-miterlimit: 7; stroke-width: 2px; stroke: rgb(36, 35, 35);" bx:shape="frame 64.761 211.776 68.738 116.185 34.369 58.093 0 0 0 0 1@1460cc2b"/>
  <path style="fill: rgba(216, 216, 216, 0); stroke-width: 3px; stroke: rgb(219, 219, 219);" d="M 141.115 239.603 C 146.563 239.603 149.218 239.159 154.595 238.391 C 156.825 238.072 160.69 233.035 161.252 230.625 C 163.385 221.477 161.399 218.008 157.589 213.974 C 155.397 211.654 148.428 207.57 144.611 215.649"/>
</svg>