<?xml version="1.0" encoding="utf-8"?>
<svg viewBox="0 0 718.362 427.419" xmlns="http://www.w3.org/2000/svg" xmlns:bx="https://boxy-svg.com">
  <rect x="-4.032" y="-4.808" width="723.945" height="434.243" style="stroke: rgba(0, 0, 0, 0); fill: rgb(77, 80, 83);"/>
  <path d="M 706.125 242.858 Q 734.506 228.261 738.785 242.858 L 752.282 288.906 Q 756.56 303.503 723.9 303.503 L 620.87 303.503 Q 588.21 303.503 616.591 288.906 Z" style="stroke: rgba(0, 0, 0, 0); fill: rgba(255, 14, 82, 0.24);" bx:shape="triangle 588.21 228.261 168.35 75.242 0.869 0.194 1@4982b8c0"/>
  <path d="M -649.058 -444.322 Q -623.551 -476.911 -616.398 -444.322 L -593.835 -341.515 Q -586.682 -308.926 -619.342 -308.926 L -722.372 -308.926 Q -755.032 -308.926 -729.525 -341.515 Z" style="stroke: rgba(0, 0, 0, 0); fill: rgba(255, 14, 82, 0.47);" transform="matrix(-1, 0, 0, -1, 0, 0)" bx:shape="triangle -755.032 -476.911 168.35 167.985 0.781 0.194 1@b7b62549"/>
  <path d="M 739.267 340.333 Q 767.648 304.812 771.927 340.333 L 785.424 452.39 Q 789.702 487.911 757.042 487.911 L 654.012 487.911 Q 621.352 487.911 649.733 452.39 Z" style="stroke: rgba(0, 0, 0, 0); fill: rgba(255, 14, 82, 0.65);" bx:shape="triangle 621.352 304.812 168.35 183.099 0.869 0.194 1@a83f087c"/>
  <path d="M 522.592 345.505 Q 576.658 302.121 586.675 345.505 L 618.211 482.368 Q 628.208 525.752 564.126 525.752 L 361.968 525.752 Q 297.886 525.752 351.972 482.368 Z" style="stroke: rgba(0, 0, 0, 0); fill: rgba(255, 14, 82, 0.7);" bx:shape="triangle 297.886 302.121 330.322 223.631 0.844 0.194 1@4ea2787b"/>
  <path d="M -34.944 245.892 Q -7.619 227.43 -3.5 245.892 L 9.494 304.133 Q 13.613 322.595 -17.83 322.595 L -117.023 322.595 Q -148.466 322.595 -121.142 304.133 Z" style="stroke: rgba(0, 0, 0, 0); fill: rgba(255, 14, 82, 0.24);" transform="matrix(-1, 0, 0, 1, 0, 0)" bx:shape="triangle -148.466 227.43 162.079 95.165 0.869 0.194 1@511fd77e"/>
  <path d="M -97.127 -476.143 Q -84.616 -511.664 -71.902 -476.143 L -31.796 -364.086 Q -19.083 -328.565 -44.308 -328.565 L -123.883 -328.565 Q -149.108 -328.565 -136.596 -364.086 Z" style="stroke: rgba(0, 0, 0, 0); fill: rgba(255, 14, 82, 0.49);" transform="matrix(-1, 0, 0, -1, 0, 0)" bx:shape="triangle -149.108 -511.664 130.025 183.099 0.496 0.194 1@f7380390"/>
  <path d="M -205.035 364.227 Q -153.67 335.636 -143.298 364.227 L -110.579 454.421 Q -100.207 483.012 -161.944 483.012 L -356.7 483.012 Q -418.437 483.012 -367.072 454.421 Z" style="stroke: rgba(0, 0, 0, 0); fill: rgba(255, 14, 82, 0.69);" transform="matrix(-1, 0, 0, 1, 0, 0)" bx:shape="triangle -418.437 335.636 318.23 147.376 0.832 0.194 1@7967334b"/>
  <path d="M -395.998 -440.238 Q -380.149 -452.827 -356.962 -440.238 L -283.814 -400.523 Q -260.626 -387.934 -299.662 -387.934 L -422.808 -387.934 Q -461.844 -387.934 -445.995 -400.523 Z" style="stroke: rgba(0, 0, 0, 0); fill: rgba(255, 14, 82, 0.8);" transform="matrix(-1, 0, 0, -1, 0, 0)" bx:shape="triangle -461.844 -452.827 201.218 64.893 0.406 0.194 1@99eeb3de"/>
  <path d="M -20.335 354.561 Q -3.831 309.718 10.003 354.561 L 53.645 496.024 Q 67.479 540.867 37.141 540.867 L -58.564 540.867 Q -88.902 540.867 -72.398 496.024 Z" style="stroke: rgba(0, 0, 0, 0); fill: rgba(255, 14, 82, 0.67);" transform="matrix(-1, 0, 0, 1, 0, 0)" bx:shape="triangle -88.902 309.718 156.381 231.149 0.544 0.194 1@f3e489e5"/>
</svg>